Coordinates
version=1
nRows=49
nColumns=12
inDegrees=yes

Units are S.I. units (second, meters, Newtons, ...)
Angles are in degrees

endheader
time	SC_y	SC_z	SC_x	AC_y	AC_z	AC_x	GH_y	GH_z	GH_yy	EL_x	PS_y
       0.0              -54.18          35.56          49.48          38.65         -15.08         -3.385         -95.78          4.116         -157.5          46.02          130.4
   0.03894              -54.18          35.56          49.49          38.65         -15.08         -3.382         -95.78          4.113         -157.5          46.01          130.4
   0.07787              -54.18          35.55          49.49          38.65         -15.08         -3.379         -95.79          4.109         -157.5          46.01          130.4
    0.1168              -54.17          35.55          49.49          38.66         -15.08         -3.375         -95.79          4.106         -157.4           46.0          130.4
    0.1557              -54.17          35.55          49.49          38.66         -15.08         -3.372         -95.79          4.102         -157.4           46.0          130.4
    0.1947              -54.17          35.54          49.49          38.66         -15.08         -3.368          -95.8          4.097         -157.4          45.99          130.4
    0.2336              -54.17          35.54          49.49          38.66         -15.08         -3.364          -95.8          4.093         -157.3          45.99          130.4
    0.2725              -54.16          35.54          49.49          38.67         -15.08          -3.36          -95.8          4.088         -157.3          45.98          130.4
    0.3115              -54.16          35.53          49.49          38.67         -15.08         -3.356         -95.81          4.083         -157.2          45.97          130.4
    0.3504              -54.16          35.53          49.49          38.68         -15.08         -3.351         -95.81          4.077         -157.2          45.96          130.5
    0.3894              -54.16          35.52          49.49          38.68         -15.08         -3.346         -95.81          4.071         -157.1          45.96          130.5
    0.4283              -54.15          35.52          49.49          38.68         -15.08          -3.34         -95.82          4.065         -157.0          45.95          130.5
    0.4672              -54.15          35.51          49.49          38.69         -15.09         -3.334         -95.82          4.058         -157.0          45.94          130.5
    0.5062              -54.14          35.51           49.5          38.69         -15.09         -3.327         -95.83          4.051         -156.9          45.93          130.5
    0.5451              -54.14           35.5           49.5           38.7         -15.09          -3.32         -95.83          4.043         -156.8          45.92          130.5
     0.584              -54.13          35.49           49.5          38.71         -15.09         -3.313         -95.84          4.034         -156.7           45.9          130.5
     0.623              -54.13          35.49           49.5          38.71         -15.09         -3.304         -95.85          4.024         -156.7          45.89          130.5
    0.6619              -54.12          35.48           49.5          38.72         -15.09         -3.295         -95.85          4.014         -156.6          45.88          130.5
    0.7008              -54.12          35.47           49.5          38.73          -15.1         -3.285         -95.86          4.003         -156.4          45.86          130.5
    0.7398              -54.11          35.46           49.5          38.74          -15.1         -3.275         -95.87           3.99         -156.3          45.84          130.5
    0.7787               -54.1          35.45          49.51          38.75          -15.1         -3.263         -95.88          3.977         -156.2          45.82          130.5
    0.8176              -54.09          35.44          49.51          38.76         -15.11          -3.25         -95.89          3.962         -156.1           45.8          130.5
    0.8566              -54.09          35.43          49.51          38.77         -15.11         -3.235          -95.9          3.945         -155.9          45.78          130.6
    0.8955              -54.08          35.41          49.51          38.78         -15.11         -3.219         -95.92          3.927         -155.7          45.75          130.6
    0.9345              -54.06          35.39          49.52           38.8         -15.12         -3.201         -95.93          3.907         -155.5          45.73          130.6
    0.9734              -54.05          35.38          49.52          38.81         -15.12         -3.181         -95.95          3.884         -155.3          45.69          130.6
     1.012              -54.04          35.36          49.53          38.83         -15.13         -3.159         -95.97          3.859         -155.1          45.66          130.6
     1.051              -54.02          35.33          49.53          38.85         -15.13         -3.134         -95.99           3.83         -154.8          45.62          130.7
      1.09               -54.0          35.31          49.54          38.87         -15.14         -3.106         -96.01          3.798         -154.5          45.57          130.7
     1.129              -53.98          35.28          49.54           38.9         -15.14         -3.074         -96.04          3.761         -154.1          45.52          130.7
     1.168              -53.96          35.25          49.55          38.93         -15.15         -3.037         -96.07          3.719         -153.7          45.46          130.7
     1.207              -53.94          35.21          49.56          38.96         -15.16         -2.995          -96.1          3.671         -153.3          45.39          130.8
     1.246               -53.9          35.17          49.56           39.0         -15.17         -2.946         -96.14          3.616         -152.7          45.32          130.8
     1.285              -53.87          35.11          49.57          39.05         -15.19          -2.89         -96.19          3.551         -152.1          45.23          130.9
     1.324              -53.83          35.06          49.59           39.1          -15.2         -2.824         -96.24          3.476         -151.4          45.12          130.9
     1.363              -53.78          34.99           49.6          39.16         -15.22         -2.746          -96.3          3.387         -150.5           45.0          131.0
     1.402              -53.72           34.9          49.62          39.24         -15.24         -2.653         -96.38          3.281         -149.5          44.85          131.1
     1.441              -53.65           34.8          49.64          39.33         -15.26         -2.542         -96.47          3.154         -148.3          44.67          131.2
      1.48              -53.57          34.68          49.66          39.44         -15.29         -2.408         -96.58          3.001         -146.8          44.46          131.3
     1.518              -53.46          34.53          49.69          39.57         -15.33         -2.244         -96.71          2.814         -145.0          44.19          131.5
     1.557              -53.34          34.35          49.73          39.73         -15.37         -2.042         -96.88          2.583         -142.8          43.87          131.7
     1.596              -53.18          34.13          49.77          39.94         -15.43         -1.789         -97.08          2.295         -140.0          43.47          131.9
     1.635              -52.98          33.84          49.83          40.19          -15.5         -1.471         -97.34          1.932         -136.5          42.96          132.2
     1.674              -52.73          33.48           49.9          40.52         -15.59         -1.067         -97.67           1.47         -132.1          42.31          132.6
     1.713               -52.4          33.01           50.0          40.94         -15.71        -0.5496         -98.09         0.8796         -126.4          41.48          133.1
     1.752              -51.99          32.42          50.12          41.48         -15.86         0.1144         -98.63         0.1216         -119.1          40.42          133.7
     1.791              -51.46          31.65          50.27          42.16         -16.05         0.9625         -99.33        -0.8465         -109.8          39.06          134.5
      1.83              -50.79          30.69          50.46          43.02         -16.28          2.029         -100.2         -2.064         -98.04          37.36          135.5
     1.869              -49.97          29.53           50.7          44.07         -16.57          3.328         -101.3         -3.547         -83.76          35.28          136.7
